# xmcd CD database file
#
# Track frame offsets:
#	150
#	13338
#	26048
#	39221
#	53197
#	65912
#	77728
#	90356
#	103670
#	117250
#	129835
#	141263
#	152179
#	163728
#	178131
#	191258
#	203460
#	217447
#	230228
#
# Disc length: 3242 seconds
#
# Revision: 1
# Processed by: cddbd v1.5.2PL0 Copyright (c) Steve Scherf et al.
# Submitted via: CDex 1.70beta2
#
DISCID=100ca813
DTITLE=Illinois Jacquet  - The Ultimate Jazz Archive Set 23
DYEAR=2005
DGENRE=Jazz
TTITLE0=Jumpin' Jacquet
TTITLE1=Blues Mood
TTITLE2=Jacquet In The Box
TTITLE3=Don't Blame Me
TTITLE4=Jacquet And No Vest
TTITLE5=Jacqeut's Blues
TTITLE6=Jacquet And Coat
TTITLE7=Doggin' With Doggett
TTITLE8=You Left Me All Alone
TTITLE9=Blow, Illinois, Blow
TTITLE10=Illinois Blows The Blues
TTITLE11=Goofin' Off
TTITLE12=It's Wild
TTITLE13=Don't Push Daddy
TTITLE14=Riffin' With Jacquet
TTITLE15=Sahara Heat
TTITLE16=I Surrender Dear
TTITLE17=Destination Moon
TTITLE18=For Truly
EXTD=YEAR: 2005
EXTT0=
EXTT1=
EXTT2=
EXTT3=
EXTT4=
EXTT5=
EXTT6=
EXTT7=
EXTT8=
EXTT9=
EXTT10=
EXTT11=
EXTT12=
EXTT13=
EXTT14=
EXTT15=
EXTT16=
EXTT17=
EXTT18=
PLAYORDER=
